<?xml version="1.0" encoding="UTF-8" standalone="no"?>
<svg
   version="1.1"
   x="0px"
   y="0px"
   viewBox="0 0 30 55"
   enable-background="new 0 0 64 64"
   xml:space="preserve"
   id="svg6"
   width="30"
   height="55"
   xmlns="http://www.w3.org/2000/svg"
   xmlns:svg="http://www.w3.org/2000/svg"
   xmlns:rdf="http://www.w3.org/1999/02/22-rdf-syntax-ns#"
   xmlns:cc="http://creativecommons.org/ns#"><defs
     id="defs6" /><path
     d="m 30,51.998899 v -2.988092 -2.989092 -2.988092 -5.495847 c 0,-0.007 0,-0.01301 0,-0.02001 v -3.524467 c 0,-0.007 0,-0.01301 0,-0.02001 V 20.568898 c 0,-0.01401 0,-0.02702 0,-0.04103 V 11.967877 8.9797858 5.9916941 3.0036025 C 30,1.3484439 28.697398,0.00150105 27.096727,0.00150105 H 19.94016 c -0.03968,-0.0020014 -0.07742,-0.0020014 -0.117098,0 H 11.72777 c -0.03968,-0.0020014 -0.07742,-0.0020014 -0.117099,0 H 10.13968 c -0.0068,0 -0.01258,0 -0.01936,0 H 2.9047243 c -1.600671,0 -2.90327266,1.34694285 -2.90327266,3.00210145 v 2.9880916 2.9880917 2.9880912 0.04603 c -0.001935519,0.03402 -0.001935519,0.06505 0,0.10007 v 4.813369 c -0.001935519,0.04103 -0.001935519,0.08006 0,0.121085 v 3.458421 c -0.001935519,0.03402 -0.001935519,0.06504 0,0.10007 v 4.825377 c -0.001935519,0.03402 -0.001935519,0.06505 0,0.10007 v 3.465426 c -0.001935519,0.03402 -0.001935519,0.06505 0,0.10007 v 4.849395 c -9.6776123e-4,0.02101 -9.6776123e-4,0.04003 0,0.06104 v 9.02732 2.98609 2.988091 2.988092 c 0,1.655159 1.30260166,3.002101 2.90327266,3.002101 H 27.096727 C 28.697398,55.001 30,53.654057 30,51.998899 Z M 1.9369667,48.838687 c 0.3038759,0.112078 0.6261392,0.185129 0.9677576,0.185129 H 27.096727 c 0.341619,0 0.663882,-0.07205 0.967758,-0.185129 v 0.171119 c 0,0.552387 -0.433555,1.000701 -0.967758,1.000701 H 2.9047243 c -0.5342022,0 -0.9677576,-0.448314 -0.9677576,-1.000701 z m 22.6455263,-8.837186 2.737786,-2.830982 0.744206,0.769539 v 5.093565 c 0,0.164115 -0.04742,0.313219 -0.115163,0.449315 z M 2.0521299,43.482938 c -0.067743,-0.137096 -0.1151632,-0.2852 -0.1151632,-0.449315 v -5.091564 l 0.7461411,-0.77154 2.7368183,2.829981 z m 1.9993871,-7.72841 2.7368183,-2.829981 2.7368183,2.829981 -2.7368183,2.829981 z m 19.162567,-5.659962 -2.737786,-2.830982 2.735851,-2.82898 2.737786,2.830982 z m 4.10426,-1.41399 0.746141,0.77154 V 33.572 l -0.744206,0.769539 -2.737786,-2.830982 z m -15.054437,-1.416992 2.737787,-2.830981 2.737786,2.830981 -2.737786,2.830982 z m 1.369377,4.244972 -2.738753,2.830981 -2.7368188,-2.829981 2.7377858,-2.830981 z m -2.737786,-5.659962 -2.7377858,-2.829981 2.7377858,-2.830982 2.736819,2.829981 z m 5.474605,-2.830982 2.736818,-2.82898 2.736818,2.830981 -2.73585,2.828981 z m 2.737786,5.660963 2.737786,2.830981 -2.738754,2.829981 -2.736818,-2.829981 z m 5.472669,-5.658962 2.737786,-2.830981 0.746141,0.77154 v 4.119884 l -0.746141,0.77154 z m -1.368409,-1.41499 -2.736819,-2.830982 2.737786,-2.829981 2.736819,2.829981 z m -4.105228,-4.246973 -2.736818,-2.830981 2.736818,-2.829981 2.737786,2.830981 z m -1.368409,1.415991 -2.736818,2.828981 -2.736819,-2.829981 2.736819,-2.829981 z m -6.842046,-1.416992 -2.7368183,-2.82998 2.7368183,-2.829981 2.736818,2.829981 z M 9.5270891,18.772641 6.7893031,21.603622 4.0524847,18.773641 6.7902708,15.94266 Z m -4.1061952,4.245972 -2.7377861,2.830981 -0.7461411,-0.77254 v -4.115881 l 0.7471088,-0.772541 z m 1.3684092,1.41499 2.7368183,2.829981 -2.7377861,2.830982 -2.7368183,-2.829981 z m -1.369377,7.075953 -2.7368183,2.829981 -0.7461411,-0.77154 v -4.115881 l 0.7461411,-0.77154 z m 5.4746049,5.659962 2.737786,2.830982 -2.736819,2.829981 -2.7377858,-2.830982 z m 1.368409,-1.41499 2.738754,-2.830982 2.736818,2.830982 -2.737786,2.830981 z m 6.843981,1.41499 2.737786,2.830982 -2.737786,2.830982 -2.737786,-2.830982 z m 1.368409,-1.41499 2.738754,-2.829981 2.737786,2.830982 -2.737786,2.830981 z m 7.589155,-23.2853 v 4.117883 l -0.746141,0.77154 -2.736818,-2.829981 2.736818,-2.829981 z m -4.851369,0.643451 -2.737786,-2.830982 2.736819,-2.8299809 2.737786,2.8309819 z m -4.106195,-4.2459724 -2.736818,-2.829981 2.736818,-2.8299809 2.736818,2.8299809 z m -1.368409,1.4149904 -2.736818,2.829981 -2.736819,-2.829981 2.736819,-2.8299809 z M 10.896466,8.8667066 8.1577122,6.0357249 10.894531,3.205744 13.632317,6.0367256 Z M 9.5270891,10.281697 6.7902708,13.111678 4.0524847,10.280696 6.7893031,7.4507154 Z M 5.4218616,14.526669 2.6840755,17.35765 1.9369667,16.585109 v -4.115881 l 0.7471088,-0.77254 z m 1.3664737,26.887821 2.5326215,2.618833 h -5.065243 z m 5.6807367,2.619834 2.531654,-2.617833 2.531654,2.617833 z m 8.212391,0 2.531653,-2.617833 2.531654,2.617833 z M 28.064485,3.0036025 V 5.9916941 8.0971679 L 27.318344,8.868708 24.580558,6.0377263 27.948354,2.5552887 c 0.06871,0.1350945 0.116131,0.2841989 0.116131,0.4483138 z M 23.212149,4.6217352 20.679527,2.002902 h 5.065243 z m -8.210455,0 -2.532622,-2.6188332 h 5.065243 z M 6.7893031,4.6207345 4.2576493,2.002902 H 9.3209568 Z M 5.4208939,6.0357249 2.6840755,8.8657059 1.9369667,8.0931651 V 5.9916941 3.0036025 c 0,-0.1641149 0.048388,-0.3132193 0.1161309,-0.4503152 z M 1.9369667,45.850595 c 0.3038759,0.112078 0.6261392,0.18513 0.9677576,0.18513 H 27.096727 c 0.341619,0 0.663882,-0.07205 0.967758,-0.18513 v 0.17112 c 0,0.552386 -0.433555,1.0007 -0.967758,1.0007 H 2.9047243 c -0.5342022,0 -0.9677576,-0.448314 -0.9677576,-1.0007 z m 0,6.148304 v -0.17112 c 0.3038759,0.112078 0.6261392,0.18513 0.9677576,0.18513 H 27.096727 c 0.341619,0 0.663882,-0.07205 0.967758,-0.18513 v 0.17112 c 0,0.552386 -0.433555,1.0007 -0.967758,1.0007 H 2.9047243 c -0.5342022,0 -0.9677576,-0.449314 -0.9677576,-1.0007 z"
     id="path1"
     style="stroke-width:0.984092" /><metadata
     id="metadata6"><rdf:RDF><cc:Work
         rdf:about=""><cc:license
           rdf:resource="http://creativecommons.org/publicdomain/zero/1.0/" /></cc:Work><cc:License
         rdf:about="http://creativecommons.org/publicdomain/zero/1.0/"><cc:permits
           rdf:resource="http://creativecommons.org/ns#Reproduction" /><cc:permits
           rdf:resource="http://creativecommons.org/ns#Distribution" /><cc:permits
           rdf:resource="http://creativecommons.org/ns#DerivativeWorks" /></cc:License></rdf:RDF></metadata></svg>
